# xmcd
#
# Track frame offsets: 
#        183
#        18813
#        30208
#        59483
#        76340
#        87263
#        96635
#        109753
#        134525
#        148458
#
# Disc length: 2515 seconds
#
# Revision: 3
# Processed by: cddbd v1.5.2PL0 Copyright (c) Steve Scherf et al.
# Submitted via: ExactAudioCopy v1.3
#
DISCID=8509d10a
DTITLE=Stevie Wonder - Stevie Wonders Journey Through The Secret Life 
DTITLE=Of Plants Volume I
DYEAR=1979
DGENRE=Soul, Pop, R&B, Funk, Jazz
TTITLE0=Earth's Creation
TTITLE1=The First Garden
TTITLE2=Voyage To India
TTITLE3=Same Old Story
TTITLE4=Venus' Flytrap And The Bug
TTITLE5=Ai No Sono
TTITLE6=Seasons
TTITLE7=Power Flower
TTITLE8=Send One Your Love (Music)
TTITLE9=Race Babbling
EXTD=
EXTT0=
EXTT1=
EXTT2=
EXTT3=
EXTT4=
EXTT5=
EXTT6=
EXTT7=
EXTT8=
EXTT9=
PLAYORDER=
